<svg xmlns="http://www.w3.org/2000/svg" width="541.487" height="108.877" viewBox="0 0 541.487 108.877">
  <g id="Group_365" data-name="Group 365" transform="translate(-7027.696 -3331.823)">
    <path id="Path_622" data-name="Path 622" d="M7569.183,3351.627v-12.445h-99.375v12.445h41.955v79.286h15.288v-79.286Zm-116.972,13.155,13.155-3.733v-1.956q0-11.5-4.889-15.705t-16.622-4.206h-48.887q-12.267,0-16.8,4.445t-4.533,17.244v8q0,12.624,4.533,17.155t16.8,4.533h57.6v27.554H7384.3v-14.755l-14.221,3.378v2.489q0,12.624,4.533,17.155t16.977,4.533h53.51q12.441,0,16.888-4.533t4.444-17.155v-10.311q0-12.441-4.444-17.066t-16.888-4.622h-57.776v-25.777h64.887Zm-348.34,51.2q-2.224,2.313-7.911,2.311h-52.976v-29.51h52.976q5.688,0,7.911,2.311t2.222,8.711v7.644q0,6.225-2.222,8.533m-7.911-39.11h-52.976v-25.421h52.976q4.975,0,7.2,1.6t2.222,6.4v9.244q0,8.178-9.422,8.177m.047,54.043q25.374,0,25.375-17.955v-11.733q0-16-15.644-17.955,15.108-1.954,15.11-15.644V3356.96q0-9.422-4.613-13.6t-14.728-4.178H7027.7v91.731Z" fill="#202024"/>
    <path id="Path_623" data-name="Path 623" d="M7183.49,3440.7v-12.825a41.6,41.6,0,1,1,42.4-42.393h12.823a54.425,54.425,0,1,0-55.219,55.218" fill="#00cdfc"/>
    <path id="Path_624" data-name="Path 624" d="M7310.412,3331.823v12.826a41.6,41.6,0,1,1-42.4,42.393h-12.823a54.426,54.426,0,1,0,55.219-55.219" fill="#00cdfc"/>
  </g>
</svg>
